<svg xmlns="http://www.w3.org/2000/svg" viewBox="0 0 111 78.74"><defs><style>.cls-1{fill:#f96138;}.cls-2{fill:#fff;}</style></defs><title>BANBASE_SVG</title><g id="Layer_2" data-name="Layer 2"><g id="Layer_1-2" data-name="Layer 1"><rect class="cls-1" x="16.13" y="-16.13" width="78.74" height="111" rx="18.86" transform="translate(94.87 -16.13) rotate(90)"/><path class="cls-2" d="M31.71,28.51a4.82,4.82,0,0,0-1.49-1.78,5.52,5.52,0,0,0-2.08-.93v-.12A5.59,5.59,0,0,0,30,24.62a5,5,0,0,0,1.25-1.76,6,6,0,0,0,.44-2.31,5.15,5.15,0,0,0-.75-2.81,4.93,4.93,0,0,0-2.13-1.84,7.47,7.47,0,0,0-3.26-.66H14.19v22H25.52A9,9,0,0,0,29,36.59a5.06,5.06,0,0,0,2.4-1.92,6,6,0,0,0,.9-3.46A6,6,0,0,0,31.71,28.51ZM17.23,17.87h7.93a3.62,3.62,0,0,1,2.47.81,3.21,3.21,0,0,1,.93,2.55A3.48,3.48,0,0,1,28.1,23a3.24,3.24,0,0,1-1.27,1.22,3.88,3.88,0,0,1-1.89.43H17.23ZM28.14,33.73a4.05,4.05,0,0,1-2.65.85H17.23V27.25h8a5.18,5.18,0,0,1,2.18.4,2.8,2.8,0,0,1,1.31,1.21,4.19,4.19,0,0,1,.45,2A3.5,3.5,0,0,1,28.14,33.73Z"/><path class="cls-2" d="M46.68,15.24h-4L34,37.2h3.14l2.11-5.44,1-2.59,2.69-6.89L43.41,21c.2-.53.38-1.07.58-1.62s.36-1.05.51-1.47h.19q.2.54.42,1.2l.45,1.28c.15.41.28.79.41,1.13s.23.61.29.8l2.66,6.89,1,2.59,2.15,5.44h3.3Z"/><path class="cls-2" d="M73.44,15.24V31.7h-.13A6.05,6.05,0,0,0,72.9,31l-.52-.75c-.17-.26-.31-.45-.41-.58L61.31,15.24h-3v22h3V20.46h.16c.19.25.43.6.72,1s.5.76.65,1L73.63,37.2h2.79v-22Z"/><path class="cls-2" d="M31.71,55.49a5,5,0,0,0-1.49-1.78,5.66,5.66,0,0,0-2.08-.92v-.13A5.42,5.42,0,0,0,30,51.6a4.94,4.94,0,0,0,1.25-1.76,6,6,0,0,0,.44-2.3,5.16,5.16,0,0,0-.75-2.82,5,5,0,0,0-2.13-1.84,7.47,7.47,0,0,0-3.26-.66H14.19v22H25.52A9.23,9.23,0,0,0,29,63.58a5.18,5.18,0,0,0,2.4-1.92,7,7,0,0,0,.34-6.17ZM17.23,44.85h7.93a3.62,3.62,0,0,1,2.47.81,3.24,3.24,0,0,1,.93,2.55A3.52,3.52,0,0,1,28.1,50a3.21,3.21,0,0,1-1.27,1.21,3.88,3.88,0,0,1-1.89.44H17.23ZM28.14,60.71a4,4,0,0,1-2.65.85H17.23V54.23h8a5.18,5.18,0,0,1,2.18.4,2.77,2.77,0,0,1,1.31,1.22,4.15,4.15,0,0,1,.45,2A3.49,3.49,0,0,1,28.14,60.71Z"/><path class="cls-2" d="M46.68,42.22h-4L34,64.19h3.14l2.11-5.45,1-2.56,2.69-6.91.48-1.33c.2-.52.38-1.06.58-1.62l.51-1.47h.19q.2.54.42,1.2c.15.44.3.86.45,1.28s.28.79.41,1.14.23.61.29.8L48.89,56l1,2.76,2.15,5.45h3.3Z"/><path class="cls-2" d="M74.82,55.43a5.34,5.34,0,0,0-1.65-1.73,10.84,10.84,0,0,0-2.34-1.15c-.86-.31-1.75-.59-2.66-.83L65.5,51a18.77,18.77,0,0,1-2.34-.79,4.91,4.91,0,0,1-1.65-1.1,2.4,2.4,0,0,1-.62-1.67,2.26,2.26,0,0,1,.62-1.55,4.09,4.09,0,0,1,1.91-1.06,12,12,0,0,1,3.2-.37,7.78,7.78,0,0,1,2.64.42,4.27,4.27,0,0,1,1.84,1.19,2.71,2.71,0,0,1,.68,1.85v.48h3V48a5.64,5.64,0,0,0-.64-2.79,5.27,5.27,0,0,0-1.77-1.9,8.33,8.33,0,0,0-2.63-1.12,13.11,13.11,0,0,0-3.22-.37,15.65,15.65,0,0,0-3.74.4A8.51,8.51,0,0,0,60,43.39a5,5,0,0,0-1.66,1.84,5.25,5.25,0,0,0-.56,2.47,4.74,4.74,0,0,0,.62,2.49,5.52,5.52,0,0,0,1.65,1.72,10.46,10.46,0,0,0,2.32,1.15c.86.31,1.75.58,2.67.82s1.81.47,2.68.72a16,16,0,0,1,2.32.83,4.92,4.92,0,0,1,1.65,1.18,2.7,2.7,0,0,1,.62,1.81A2.66,2.66,0,0,1,72,59.88a2.93,2.93,0,0,1-1,1,5.36,5.36,0,0,1-1.41.64,8.73,8.73,0,0,1-1.63.34,15.36,15.36,0,0,1-1.62.09,10.17,10.17,0,0,1-3.09-.43,4.52,4.52,0,0,1-2.12-1.33A3.17,3.17,0,0,1,60.35,58c0-.11,0-.23,0-.37s0-.24,0-.3H57.31c0,.1,0,.21,0,.31s0,.22,0,.33A5.8,5.8,0,0,0,58,61.05a5.89,5.89,0,0,0,2,2A9.43,9.43,0,0,0,63,64.22a16.72,16.72,0,0,0,3.44.35,15,15,0,0,0,4.67-.67,6.57,6.57,0,0,0,3.17-2.13A5.93,5.93,0,0,0,75.43,58,5,5,0,0,0,74.82,55.43Z"/><path class="cls-2" d="M83,61.56v-7.3H95.4V51.64H83V44.85H96.81V42.22H79.91v22H97V61.56Z"/></g></g></svg>